<?xml version="1.0" encoding="UTF-8" standalone="no"?><!DOCTYPE svg PUBLIC "-//W3C//DTD SVG 1.1//EN" "http://www.w3.org/Graphics/SVG/1.1/DTD/svg11.dtd"><svg width="100%" height="100%" viewBox="0 0 135 83" version="1.1" xmlns="http://www.w3.org/2000/svg" xmlns:xlink="http://www.w3.org/1999/xlink" xml:space="preserve" xmlns:serif="http://www.serif.com/" style="fill-rule:evenodd;clip-rule:evenodd;stroke-linejoin:round;stroke-miterlimit:2;"><g><path d="M67.712,73.633c-0.237,0.245 -0.481,0.483 -0.732,0.713c-1.269,1.167 -2.629,2.151 -4.08,2.954c-1.451,0.801 -2.993,1.476 -4.625,2.023c-1.633,0.547 -3.283,0.966 -4.952,1.259c-1.668,0.291 -3.337,0.437 -5.006,0.437l-48.317,-0l-0,-79.441l47.991,-0c1.741,-0 3.373,0.145 4.897,0.435c1.523,0.29 2.956,0.708 4.298,1.252c1.343,0.544 2.594,1.179 3.755,1.904c1.161,0.726 2.194,1.542 3.101,2.449c0.772,0.771 1.477,1.595 2.118,2.471c-1.19,1.14 -2.307,2.402 -3.351,3.786c-1.56,2.068 -2.902,4.425 -4.026,7.073c-1.125,2.648 -1.996,5.605 -2.612,8.869c-0.617,3.265 -0.925,6.893 -0.925,10.883c-0,2.466 0.127,4.951 0.381,7.454c0.254,2.503 0.707,4.97 1.36,7.4c0.653,2.43 1.505,4.788 2.557,7.073c1.052,2.286 2.34,4.426 3.864,6.421c1.251,1.639 2.686,3.167 4.304,4.585Zm-1.552,-63.544c0.588,-0.563 1.194,-1.097 1.818,-1.601c1.886,-1.523 3.918,-2.829 6.094,-3.917c2.177,-1.089 4.426,-1.977 6.747,-2.667c2.322,-0.689 4.68,-1.179 7.074,-1.469c2.394,-0.29 4.752,-0.435 7.073,-0.435c4.571,-0 8.815,0.526 12.732,1.578c3.918,1.052 7.437,2.594 10.556,4.625c3.12,2.031 5.822,4.607 8.108,7.726c2.285,3.12 9.256,21.757 6.049,21.123c-5.287,-1.047 -24.277,-5.235 -24.277,-5.235l-0,-9.902l-27.424,-0l0,42.332l27.424,-0l-0.331,-17.997c0,-0 21.439,1.413 26.361,1.455c1.935,0.017 -3.45,14.637 -4.429,16.922c-0.979,2.286 -2.086,4.353 -3.319,6.203c-1.233,1.85 -2.576,3.465 -4.027,4.843c-1.451,1.378 -2.974,2.575 -4.57,3.591c-1.596,1.016 -3.247,1.886 -4.952,2.612c-1.704,0.725 -3.482,1.269 -5.332,1.632c-1.85,0.363 -3.7,0.635 -5.55,0.816c-1.85,0.182 -3.718,0.272 -5.604,0.272c-4.135,0 -7.89,-0.326 -11.263,-0.979c-3.374,-0.653 -6.421,-1.578 -9.141,-2.775c-2.721,-1.197 -5.115,-2.63 -7.183,-4.298c-0.369,-0.299 -0.73,-0.602 -1.082,-0.911c0.961,-0.993 1.805,-2.105 2.533,-3.334c0.907,-1.531 1.632,-3.281 2.177,-5.25c0.544,-1.969 0.816,-4.193 0.816,-6.672c-0,-1.532 -0.127,-2.954 -0.379,-4.267c-0.252,-1.312 -0.63,-2.552 -1.135,-3.718c-0.504,-1.168 -1.081,-2.244 -1.731,-3.228c-0.648,-0.985 -1.386,-1.896 -2.215,-2.734c-0.829,-0.839 -1.694,-1.568 -2.595,-2.188c-0.901,-0.62 -1.82,-1.185 -2.758,-1.695c-0.936,-0.51 -1.909,-0.929 -2.918,-1.257c-1.009,-0.329 -1.982,-0.566 -2.919,-0.712c0.653,-0.145 1.342,-0.363 2.067,-0.653c0.726,-0.29 1.451,-0.671 2.177,-1.143c0.725,-0.471 1.451,-1.034 2.176,-1.687c0.726,-0.653 1.415,-1.378 2.068,-2.176c0.653,-0.798 1.251,-1.651 1.796,-2.557c0.544,-0.907 1.033,-1.869 1.469,-2.884c0.435,-1.016 0.761,-2.068 0.979,-3.156c0.218,-1.088 0.327,-2.213 0.327,-3.374c-0,-1.233 -0.109,-2.448 -0.327,-3.645c-0.218,-1.197 -0.562,-2.358 -1.034,-3.483c-0.471,-1.124 -1.07,-2.212 -1.795,-3.264c-0.109,-0.157 -0.219,-0.313 -0.331,-0.467Zm-41.675,7.377l0,15.235l17.847,0l0,-15.235l-17.847,0Zm-0.109,30.144l0,16.323l22.091,0l0,-16.323l-22.091,-0Z" style="fill:#f2af0d;"/><path d="M105.023,33.914l1.616,6.003c0,0.757 -2.23,-1.891 -2.987,-1.891l-11.393,0c-0.757,0 -1.371,-0.614 -1.371,-1.37l-0,-2.742c-0,-0.756 0.614,-1.37 1.371,-1.37l11.393,-0c0.757,-0 1.371,0.614 1.371,1.37Z" style="fill:#f2af0d;"/><path d="M84.629,43.385l-1.617,6.003c0,0.757 2.231,-1.891 2.987,-1.891l11.394,0c0.757,0 1.371,-0.614 1.371,-1.371l-0,-2.741c-0,-0.756 -0.614,-1.37 -1.371,-1.37l-11.394,-0c-0.756,-0 -1.37,0.614 -1.37,1.37Z" style="fill:#f2af0d;"/><path d="M84.629,23.978l-1.617,6.003c0,0.757 2.231,-1.891 2.987,-1.891l11.394,0c0.757,0 1.371,-0.614 1.371,-1.371l-0,-2.741c-0,-0.756 -0.614,-1.37 -1.371,-1.37l-11.394,-0c-0.756,-0 -1.37,0.614 -1.37,1.37Z" style="fill:#f2af0d;"/></g></svg>